<?xml version="1.0" encoding="UTF-8"?>
<svg width="170px" height="171px" viewBox="0 0 170 171" version="1.1" xmlns="http://www.w3.org/2000/svg" xmlns:xlink="http://www.w3.org/1999/xlink">
    <title>Logos/Coloured/meteor</title>
    <g id="Mood" stroke="none" stroke-width="1" fill="none" fill-rule="evenodd">
        <g id="Artboard" transform="translate(-762.000000, -316.000000)">
            <g id="Meteor" transform="translate(762.000000, 316.646700)">
                <path d="M170,85 C170,131.945234 131.945234,170 85,170 C38.0560937,170 0,131.945234 0,85 C0,38.0547656 38.0560937,0 85,0 C131.945234,0 170,38.0547656 170,85" id="Fill-227" fill="#6E111D"></path>
                <path d="M93.7794375,76.6188672 L85.9355312,87.9517578 L82.7520156,92.5603516 C81.8196719,93.9057422 81.6602969,95.6495703 82.3402969,97.1543359 L82.3934219,97.2473047 C83.7640469,100.258164 87.7205312,100.989961 90.0633437,98.6458203 L92.1285781,96.6084766 C92.3676406,96.3548047 92.7660781,96.6762109 92.5814687,96.9816797 L82.8582656,112.06918 C82.8582656,112.06918 80.4344375,116.865039 78.4502187,118.84793 C75.3875625,121.911914 71.5386562,123.736758 67.5569375,124.307852 C61.7370937,125.147227 55.6237344,123.322383 51.1373281,118.84793 C46.6748281,114.386758 44.8513125,108.261445 45.6906875,102.454883 C46.2631094,98.4585547 48.0879531,94.6109766 51.1373281,91.5469922 C52.655375,90.0302734 54.3593594,88.8309766 56.1842031,87.9265234 C59.7794375,86.1269141 65.5195937,82.9978516 68.8093594,80.7068359 L71.6063906,78.7624609 C71.6063906,78.7624609 78.6374844,73.4898047 78.9044375,73.6890234 C79.1700625,73.8762891 73.3502187,79.2684766 73.3502187,79.2684766 L71.6595156,80.9605078 C69.634125,83.0111328 70.2463906,86.4469922 72.8574844,87.6595703 L72.9385,87.6994141 C74.3755312,88.3648047 76.0529531,88.2173828 77.3585,87.3129297 L82.0467812,84.0630078 L93.3796719,76.2191016 C93.6452969,76.0198828 93.965375,76.3532422 93.7794375,76.6188672 L93.7794375,76.6188672 Z M130.761078,41.3279297 C131.573891,40.0356641 130.082406,38.5441797 128.790141,39.3450391 L95.0570937,60.2922266 C93.8179531,61.0638672 92.3543594,59.7065234 93.0330312,58.4142578 L100.130531,44.8036328 C100.850375,43.4051172 99.1317812,42.0344922 97.9338125,43.0332422 L47.5540469,85.1281641 C47.5420937,85.1560547 47.5142031,85.1560547 47.5009219,85.1812891 L44.6374844,87.6861328 L44.5843594,87.7392578 C41.8152187,90.5628516 39.7911562,93.8380078 38.524125,97.3416016 C35.102875,106.755352 37.1800625,117.716367 44.7185,125.268086 C52.2688906,132.817148 63.2431875,134.882383 72.6702187,131.473086 C72.6835,131.473086 72.6835,131.473086 72.6835,131.459805 C76.1592031,130.208711 79.4224062,128.211211 82.2340469,125.454023 L82.2871719,125.387617 L84.8969375,122.404648 L84.9500625,122.338242 L124.662328,72.6105859 C125.647797,71.3860547 124.209437,69.6940234 122.837484,70.4656641 L111.849906,76.6467578 C110.545687,77.3772266 109.133891,75.8857422 109.933422,74.6213672 L130.761078,41.3279297 Z" id="Fill-233" fill="#F09A00"></path>
                <path d="M76.5203203,105.570398 C75.6809453,107.408523 75.7871953,109.25993 76.7726641,109.71282 C76.9732109,109.805789 77.1989922,109.832352 77.4261016,109.779227 C76.8125078,111.15118 75.9465703,112.428836 74.8150078,113.561727 C73.0233672,115.352039 70.8478984,116.504852 68.5515703,117.029461 C68.2965703,117.087898 68.0163359,117.067977 67.7892266,116.93782 C67.3761797,116.702742 66.7931328,116.556648 66.1330547,116.556648 C65.4158672,116.556648 64.7823516,116.731961 64.3653203,117.010867 C64.0837578,117.070633 63.8287578,117.126414 63.5458672,117.18618 C60.9321172,116.763836 58.4405547,115.551258 56.4377422,113.548445 C54.3725078,111.49782 53.1479766,108.914617 52.7747734,106.223836 C52.2156328,102.308523 53.4401641,98.1926641 56.4377422,95.1964141 C58.1948516,93.4379766 60.3264922,92.3077422 62.5763359,91.7618828 L62.6294609,91.8150078 L62.6971953,91.7339922 C63.2032109,91.6144609 63.7211797,91.5214922 64.2418047,91.4683672 C64.2418047,92.1470391 65.2657891,92.6928984 66.5182109,92.6928984 C67.2699297,92.6928984 67.9472734,92.4963359 68.3589922,92.1895391 C68.7043047,91.9318828 69.1757891,91.8880547 69.5835234,92.0195391 C71.4893828,92.6278203 73.2850078,93.6810234 74.8017266,95.1964141 C76.8058672,97.1886016 78.0091484,99.6828203 78.4288359,102.277977 C78.5138359,102.797273 78.2774297,103.300633 77.8843047,103.651258 C77.3703203,104.108133 76.8842266,104.773523 76.5203203,105.570398" id="Fill-235" fill="#EE2737"></path>
                <path d="M77.8847031,103.650859 C77.3693906,104.110391 76.8859531,104.774453 76.5207187,105.57 C75.6813437,107.408125 75.7875937,109.260859 76.7730625,109.712422 C76.9722812,109.806719 77.1980625,109.831953 77.4251719,109.778828 C76.8129062,111.150781 75.9469687,112.428438 74.8140781,113.561328 C73.0237656,115.352969 70.8482969,116.505781 68.5519687,117.029063 C68.2956406,117.0875 68.0154062,117.068906 67.7882969,116.937422 C67.3765781,116.702344 66.7922031,116.557578 66.132125,116.557578 C65.4149375,116.557578 64.78275,116.732891 64.3643906,117.010469 C64.0828281,117.070234 63.8291562,117.126016 63.5475937,117.185781 C60.9311875,116.763438 58.439625,115.550859 56.4381406,113.548047 C54.3729062,111.497422 53.148375,108.914219 52.7751719,106.223438 C52.2160312,102.308125 53.4405625,98.1935938 56.4381406,95.1973438 C58.19525,93.4389063 60.3255625,92.3073438 62.5767344,91.7614844 C62.6165781,91.746875 62.6564219,91.746875 62.6962656,91.7335938 C63.2022812,91.6140625 63.7215781,91.5210938 64.2422031,91.4679688 C64.2422031,92.1466406 65.2661875,92.6938281 66.5172812,92.6938281 C67.2703281,92.6938281 67.9476719,92.4972656 68.3593906,92.1891406 C68.7047031,91.9328125 69.1748594,91.8889844 69.58525,92.0191406 C71.4897812,92.6274219 73.2854062,93.680625 74.802125,95.1973438 C76.8062656,97.1895313 78.0095469,99.68375 78.4292344,102.278906 C78.5142344,102.796875 78.2778281,103.300234 77.8847031,103.650859 L77.8847031,103.650859 Z M77.3587656,87.3122656 C76.0532187,88.2180469 74.3757969,88.3641406 72.9374375,87.69875 L72.85775,87.6589063 C70.2479844,86.4476563 69.6343906,83.0117969 71.6597812,80.9611719 L73.3504844,79.2704688 C73.3504844,79.2704688 79.1703281,73.875625 78.9047031,73.6883594 C78.6364219,73.4891406 71.6053281,78.763125 71.6053281,78.763125 L68.809625,80.7075 C65.5185312,82.9971875 59.7797031,86.1275781 56.1844687,87.9258594 C54.359625,88.8316406 52.6556406,90.0296094 51.1362656,91.5476563 C48.0868906,94.6103125 46.2620469,98.4592188 45.6909531,102.455547 C44.8515781,108.260781 46.6750937,114.387422 51.1362656,118.848594 C55.624,123.324375 61.7373594,125.147891 67.5572031,124.308516 C71.5389219,123.736094 75.3878281,121.91125 78.4504844,118.848594 C80.4347031,116.864375 82.8585312,112.069844 82.8585312,112.069844 L92.5804062,96.9823438 C92.7663437,96.6755469 92.3665781,96.3554688 92.1288437,96.6078125 L90.0636094,98.6451563 C87.7194687,100.989297 83.7643125,100.2575 82.3936875,97.2479688 L82.3392344,97.1536719 C81.6605625,95.6502344 81.8199375,93.9050781 82.7522812,92.5596875 L85.9357969,87.9524219 L93.7797031,76.6182031 C93.9656406,76.3525781 93.6455625,76.0192188 93.3799375,76.2197656 L82.0470469,84.0636719 L77.3587656,87.3122656 Z" id="Fill-239" fill="#FFC41C"></path>
                <path d="M77.8847031,103.650859 C77.3693906,104.110391 76.8859531,104.774453 76.5207187,105.57 C75.6813437,107.408125 75.7875937,109.260859 76.7730625,109.712422 C76.9722812,109.806719 77.1980625,109.831953 77.4251719,109.778828 C76.8129062,111.150781 75.9469687,112.428438 74.8140781,113.561328 C73.0237656,115.352969 70.8482969,116.505781 68.5519687,117.029063 C68.2956406,117.0875 68.0154062,117.068906 67.7882969,116.937422 C67.3765781,116.702344 66.7922031,116.557578 66.132125,116.557578 C65.4149375,116.557578 64.78275,116.732891 64.3643906,117.010469 C64.0828281,117.070234 63.8291562,117.126016 63.5475937,117.185781 C60.9311875,116.763438 58.439625,115.550859 56.4381406,113.548047 C54.3729062,111.497422 53.148375,108.914219 52.7751719,106.223438 C52.2160312,102.308125 53.4405625,98.1935938 56.4381406,95.1973438 C58.19525,93.4389063 60.3255625,92.3073438 62.5767344,91.7614844 C62.6165781,91.746875 62.6564219,91.746875 62.6962656,91.7335938 C63.2022812,91.6140625 63.7215781,91.5210938 64.2422031,91.4679688 C64.2422031,92.1466406 65.2661875,92.6938281 66.5172812,92.6938281 C67.2703281,92.6938281 67.9476719,92.4972656 68.3593906,92.1891406 C68.7047031,91.9328125 69.1748594,91.8889844 69.58525,92.0191406 C71.4897812,92.6274219 73.2854062,93.680625 74.802125,95.1973438 C76.8062656,97.1895313 78.0095469,99.68375 78.4292344,102.278906 C78.5142344,102.796875 78.2778281,103.300234 77.8847031,103.650859 L77.8847031,103.650859 Z M77.3587656,87.3122656 C76.0532187,88.2180469 74.3757969,88.3641406 72.9374375,87.69875 L72.85775,87.6589063 C70.2479844,86.4476563 69.6343906,83.0117969 71.6597812,80.9611719 L73.3504844,79.2704688 C73.3504844,79.2704688 79.1703281,73.875625 78.9047031,73.6883594 C78.6364219,73.4891406 71.6053281,78.763125 71.6053281,78.763125 L68.809625,80.7075 C65.5185312,82.9971875 59.7797031,86.1275781 56.1844687,87.9258594 C54.359625,88.8316406 52.6556406,90.0296094 51.1362656,91.5476563 C48.0868906,94.6103125 46.2620469,98.4592188 45.6909531,102.455547 C44.8515781,108.260781 46.6750937,114.387422 51.1362656,118.848594 C55.624,123.324375 61.7373594,125.147891 67.5572031,124.308516 C71.5389219,123.736094 75.3878281,121.91125 78.4504844,118.848594 C80.4347031,116.864375 82.8585312,112.069844 82.8585312,112.069844 L92.5804062,96.9823438 C92.7663437,96.6755469 92.3665781,96.3554688 92.1288437,96.6078125 L90.0636094,98.6451563 C87.7194687,100.989297 83.7643125,100.2575 82.3936875,97.2479688 L82.3392344,97.1536719 C81.6605625,95.6502344 81.8199375,93.9050781 82.7522812,92.5596875 L85.9357969,87.9524219 L93.7797031,76.6182031 C93.9656406,76.3525781 93.6455625,76.0192188 93.3799375,76.2197656 L82.0470469,84.0636719 L77.3587656,87.3122656 Z" id="Fill-241" fill="#FFC41C"></path>
            </g>
        </g>
    </g>
</svg>